<?xml version="1.0" encoding="UTF-8"?>
<svg version="1.1" xmlns="http://www.w3.org/2000/svg" width="603" height="435">
<path d="M0 0 C198.99 0 397.98 0 603 0 C603 143.55 603 287.1 603 435 C404.01 435 205.02 435 0 435 C0 291.45 0 147.9 0 0 Z " fill="#FEFEFE" transform="translate(0,0)"/>
<path d="M0 0 C6.6 0 13.2 0 20 0 C20.495 5.94 20.495 5.94 21 12 C33.02209717 9.53473575 45.0335043 7.03665574 57 4.3125 C57.88768066 4.11052002 58.77536133 3.90854004 59.68994141 3.70043945 C64.80920973 2.52631774 69.90881817 1.29047317 75 0 C76.83296487 6.56812411 78.19192465 12.65515619 77.9375 19.5 C77.73313673 27.45239681 79.31016999 34.87081032 80.9296875 42.62890625 C83.00904019 52.79598073 84.30937952 62.83067155 84.6328125 73.203125 C84.67451065 74.40735107 84.7162088 75.61157715 84.75917053 76.85229492 C84.89432518 80.98458347 85.01198787 85.11706313 85.125 89.25 C85.14582767 89.98337082 85.16665535 90.71674164 85.18811417 91.47233582 C86.75557262 146.83371373 86.24617894 202.25918356 86.04193211 257.63690186 C86.00852715 266.79829425 85.98734112 275.95964688 85.97363281 285.12109375 C85.95641017 296.17545642 85.91222088 307.229405 85.84439087 318.28356934 C85.82087806 322.23486744 85.8082714 326.18596339 85.80526733 330.1373291 C85.80114737 334.66761971 85.77369732 339.19712894 85.72675705 343.72717285 C85.71381079 345.35216772 85.70921359 346.97725494 85.71379471 348.60229492 C85.71864784 350.7894896 85.69306062 352.97424132 85.65942383 355.16113281 C85.65276199 356.37117981 85.64610016 357.58122681 85.63923645 358.82794189 C84.81534001 362.91633107 83.1812284 364.39109803 80 367 C74.7770774 369.52746693 69.43598677 369.33272044 63.75 369.3125 C62.85925781 369.32861328 61.96851563 369.34472656 61.05078125 369.36132812 C53.3519721 369.36691507 45.30990443 368.75303384 39.48046875 363.19140625 C35.53165167 357.87403605 35.71010719 351.31933205 35.3125 344.9375 C35.20604531 343.55747019 35.09661622 342.17766694 34.984375 340.7980957 C34.7542698 337.94487774 34.53617975 335.09112866 34.32666016 332.23632812 C33.83681004 325.7087169 33.16453273 319.19924006 32.5 312.6875 C32.3767334 311.4504834 32.2534668 310.2134668 32.12646484 308.93896484 C31.20254256 299.73243652 30.14774668 290.54469957 29.05688477 281.35668945 C28.10739838 273.24055767 27.36862776 265.1178136 26.69897461 256.97436523 C26.25559717 251.6672436 25.70635731 246.4035151 25 241.125 C24.12726288 234.47037943 23.52709744 227.81559615 23 221.125 C22.91532471 220.0515332 22.83064941 218.97806641 22.7434082 217.87207031 C22.33335661 212.57789227 21.9485967 207.28331295 21.60546875 201.984375 C20.70808182 188.59160395 19.26921349 175.31004875 17.5625 162 C17.45908295 161.18787048 17.35566589 160.37574097 17.24911499 159.53900146 C16.02685557 150.0016833 14.66976374 140.50789534 12.93641663 131.04833984 C12.15098137 126.60367941 11.87403431 122.4892262 12 118 C11.34 118 10.68 118 10 118 C9.94448975 118.59498291 9.88897949 119.18996582 9.83178711 119.80297852 C9.30913698 125.23252758 8.66979456 130.63405522 7.94702148 136.0402832 C6.47892648 147.10179647 5.46481325 158.14347238 4.69946289 169.27441406 C4.19842406 176.51314778 3.55642283 183.71389422 2.74975586 190.92431641 C2.0421446 197.33639501 1.51218794 203.75714053 1 210.1875 C0.36164372 218.14201767 -0.44526107 226.02695804 -1.5 233.9375 C-2.13148809 238.8413997 -2.55469024 243.76387004 -3 248.6875 C-3.51531354 254.34487771 -4.07724436 259.95387588 -5 265.5625 C-6.94170637 277.41149559 -7.94069872 289.38494072 -8.4375 301.375 C-8.76094369 309.00905995 -9.68907423 316.44640392 -10.85009766 323.99511719 C-11.67199125 329.63517743 -12.17019401 335.23331921 -12.4296875 340.92578125 C-12.47987785 341.94406761 -12.47987785 341.94406761 -12.53108215 342.98292542 C-12.69510074 346.35585319 -12.82773524 349.72255188 -12.91381836 353.09887695 C-13.33062149 362.31996568 -13.33062149 362.31996568 -16.69921875 365.7421875 C-17.78847656 366.15726562 -18.87773437 366.57234375 -20 367 C-21.423125 367.60908203 -21.423125 367.60908203 -22.875 368.23046875 C-26.61321121 369.15100326 -30.17366784 369.34178204 -34 369.3125 C-34.73822998 369.30903564 -35.47645996 369.30557129 -36.23706055 369.30200195 C-55.1171854 368.93522052 -55.1171854 368.93522052 -61 363 C-61.50780869 359.95228386 -61.50780869 359.95228386 -61.51898193 356.12301636 C-61.52648319 355.41806317 -61.53398444 354.71310999 -61.541713 353.98679459 C-61.56207118 351.61443579 -61.55386923 349.24302598 -61.54589844 346.87060547 C-61.55463541 345.16908829 -61.56512162 343.46757933 -61.57722473 341.76608276 C-61.60526646 337.1121455 -61.60848329 332.45847337 -61.60750484 327.80446386 C-61.61065712 322.85348121 -61.63637464 317.90261311 -61.65948486 312.95169067 C-61.70024991 303.4753527 -61.7203997 293.999083 -61.73345876 284.52267087 C-61.74886793 274.07021862 -61.78743156 263.61790039 -61.8280338 253.16552067 C-61.91411288 230.74785355 -61.95914672 208.33022042 -61.98780018 185.91241407 C-61.99673574 179.02192637 -62.0084855 172.13144765 -62.02163696 165.2409668 C-62.03927696 155.9279928 -62.05187005 146.61502263 -62.06072235 137.30203629 C-62.06406299 133.89108926 -62.06910727 130.48015214 -62.07578278 127.06921005 C-62.19369596 64.04591197 -62.19369596 64.04591197 -58.61328125 37.828125 C-58.50010056 36.97780701 -58.38691986 36.12748901 -58.27030945 35.25140381 C-57.53692556 30.25271055 -56.31179533 25.71958666 -54.63111877 20.95968628 C-53.88644874 18.6474121 -53.65312304 16.60946313 -53.70703125 14.18359375 C-53.7215332 13.00893555 -53.7215332 13.00893555 -53.73632812 11.81054688 C-53.76146484 11.02744141 -53.78660156 10.24433594 -53.8125 9.4375 C-53.82603516 8.61958984 -53.83957031 7.80167969 -53.85351562 6.95898438 C-53.88836865 4.9723619 -53.94215284 2.98608593 -54 1 C-50.43619938 1.67912716 -46.94591605 2.51624245 -43.4375 3.4375 C-38.25037272 4.75506871 -33.08394485 5.70686748 -27.7890625 6.47265625 C-25 7 -25 7 -22.265625 7.95703125 C-17.9424313 9.33776417 -13.60648073 9.96357664 -9.125 10.625 C-8.24585938 10.7590625 -7.36671875 10.893125 -6.4609375 11.03125 C-4.30800222 11.35887059 -2.15409378 11.68008508 0 12 C0 8.04 0 4.08 0 0 Z " fill="#211F21" transform="translate(291,37)"/>
<path d="M0 0 C1 1 1 1 1.09765625 2.84765625 C1.06510417 4.8984375 1.03255208 6.94921875 1 9 C0.67 9 0.34 9 0 9 C0 7.02 0 5.04 0 3 C-0.88816406 3.30292969 -1.77632813 3.60585938 -2.69140625 3.91796875 C-19.34475887 9.43943685 -36.55175077 13.15318689 -54 15 C-55.40876405 10.77370786 -55 7.89096249 -55 3 C-61.6 3 -68.2 3 -75 3 C-75 6.96 -75 10.92 -75 15 C-94.03268407 13.32354596 -94.03268407 13.32354596 -102.18359375 10.78515625 C-106.47748309 9.58810804 -110.85783696 8.88389866 -115.2565918 8.17797852 C-119.91896401 7.37742821 -123.74675214 5.98337983 -128 4 C-127.34 3.01 -126.68 2.02 -126 1 C-123.13324925 0.7188291 -120.48402869 0.63233161 -117.61669922 0.67529297 C-116.31346458 0.67704529 -116.31346458 0.67704529 -114.98390198 0.67883301 C-112.09059383 0.68605788 -109.1978647 0.71434719 -106.3046875 0.7421875 C-104.27996344 0.75033204 -102.25523291 0.75699225 -100.23049927 0.76223755 C-94.87032058 0.77941342 -89.51039146 0.81363368 -84.15032959 0.85229492 C-75.66503184 0.91111628 -67.17959411 0.94751001 -58.69416046 0.98029327 C-56.64457209 0.98821608 -54.59498593 0.99673457 -52.54540253 1.00585175 C-39.48874846 1.06024257 -26.48570702 0.96533257 -13.44580078 0.22314453 C-8.95291933 -0.02579686 -4.49981501 -0.1069669 0 0 Z " fill="#E4E2DF" transform="translate(366,34)"/>
<path d="M0 0 C16.17 0 32.34 0 49 0 C50.26237731 2.52475462 50.09856404 4.31200466 50.0625 7.125 C50.05347656 8.03507812 50.04445313 8.94515625 50.03515625 9.8828125 C50.02355469 10.58148438 50.01195312 11.28015625 50 12 C30.96993376 10.32377655 30.96993376 10.32377655 22.828125 7.7890625 C18.44224541 6.56537786 13.96826206 5.83878935 9.47973633 5.09008789 C6.01056329 4.48610114 3.04144801 3.81242298 0 2 C0 1.34 0 0.68 0 0 Z " fill="#E5E3E1" transform="translate(241,37)"/>
<path d="M0 0 C6.6 0 13.2 0 20 0 C19.67 0.66 19.34 1.32 19 2 C16.35139573 2.59355614 13.70802678 2.74209269 11 3 C13.31 3.33 15.62 3.66 18 4 C18 5.32 18 6.64 18 8 C13.05 7.67 8.1 7.34 3 7 C3 7.66 3 8.32 3 9 C9.93 9.495 9.93 9.495 17 10 C17 10.66 17 11.32 17 12 C12.62859379 13.4571354 8.39157731 13.1843615 3.8125 13.1875 C2.89146484 13.19974609 1.97042969 13.21199219 1.02148438 13.22460938 C-4.67373016 13.23673545 -9.53782367 12.62389026 -15 11 C-9.7046708 9.48775711 -5.35596673 10.91605435 0 12 C0 8.04 0 4.08 0 0 Z " fill="#686868" transform="translate(291,37)"/>
<path d="M0 0 C0.33 3.63 0.66 7.26 1 11 C-0.32 11 -1.64 11 -3 11 C-3 10.34 -3 9.68 -3 9 C-3.84304688 9.01160156 -4.68609375 9.02320313 -5.5546875 9.03515625 C-6.65039062 9.04417969 -7.74609375 9.05320312 -8.875 9.0625 C-9.96554687 9.07410156 -11.05609375 9.08570313 -12.1796875 9.09765625 C-15 9 -15 9 -17 8 C-17 7.34 -17 6.68 -17 6 C-14.87506859 5.97306425 -12.75004088 5.95363372 -10.625 5.9375 C-9.44164062 5.92589844 -8.25828125 5.91429687 -7.0390625 5.90234375 C-4 6 -4 6 -2 7 C-2 5.68 -2 4.36 -2 3 C-5.96 3 -9.92 3 -14 3 C-14 2.67 -14 2.34 -14 2 C-11.85430749 1.66576139 -9.70844207 1.33263257 -7.5625 1 C-6.36753906 0.814375 -5.17257812 0.62875 -3.94140625 0.4375 C-1 0 -1 0 0 0 Z " fill="#2C2C2D" transform="translate(311,38)"/>
<path d="M0 0 C0.33 0 0.66 0 1 0 C2.13009697 11.11368197 2.11658919 22.15481772 2.0625 33.3125 C2.05747197 35.13216022 2.05291138 36.95182179 2.04882812 38.77148438 C2.03793265 43.1810237 2.02074084 47.59049645 2 52 C1.67 52 1.34 52 1 52 C0.505 44.575 0.505 44.575 0 37 C-0.33 37 -0.66 37 -1 37 C-0.67 24.79 -0.34 12.58 0 0 Z " fill="#3B383B" transform="translate(230,177)"/>
<path d="M0 0 C0.66 0.33 1.32 0.66 2 1 C1.67 2.98 1.34 4.96 1 7 C7.93 7.495 7.93 7.495 15 8 C15 8.66 15 9.32 15 10 C10.62859379 11.4571354 6.39157731 11.1843615 1.8125 11.1875 C0.89146484 11.19974609 -0.02957031 11.21199219 -0.97851562 11.22460938 C-6.67373016 11.23673545 -11.53782367 10.62389026 -17 9 C-13.11609533 7.873963 -10.25003886 8.25749339 -6.25 8.9375 C-5.07953125 9.13214844 -3.9090625 9.32679687 -2.703125 9.52734375 C-1.81109375 9.68332031 -0.9190625 9.83929688 0 10 C0 6.7 0 3.4 0 0 Z " fill="#5E5D5E" transform="translate(293,39)"/>
<path d="M0 0 C0.33 0 0.66 0 1 0 C1.19306556 15.0162103 0.59863468 29.99751434 0 45 C-0.33 45 -0.66 45 -1 45 C-1.68835827 38.90729698 -2.19965401 32.80351279 -2.625 26.6875 C-2.67712646 26.00623047 -2.72925293 25.32496094 -2.78295898 24.62304688 C-3.02918539 20.89251056 -2.93961163 17.625218 -2 14 C-1.67 14 -1.34 14 -1 14 C-0.67 9.38 -0.34 4.76 0 0 Z " fill="#444245" transform="translate(374,98)"/>
<path d="M0 0 C1 1 1 1 1.09765625 2.84765625 C1.06510417 4.8984375 1.03255208 6.94921875 1 9 C0.67 9 0.34 9 0 9 C0 7.02 0 5.04 0 3 C-2.91548617 2.02817128 -4.37578067 1.93853867 -7.3671875 2.12109375 C-8.68178955 2.19372437 -8.68178955 2.19372437 -10.02294922 2.26782227 C-11.43471436 2.35181274 -11.43471436 2.35181274 -12.875 2.4375 C-23.92603472 3.02665495 -34.93617384 3.10181435 -46 3 C-46 2.67 -46 2.34 -46 2 C-40.89559993 1.71197502 -35.79102902 1.42726815 -30.6862793 1.14550781 C-28.95315675 1.04939345 -27.22008243 0.95240488 -25.48706055 0.85449219 C-22.98238393 0.71313986 -20.47754521 0.575032 -17.97265625 0.4375 C-17.20977798 0.39375244 -16.44689972 0.35000488 -15.66090393 0.30493164 C-4.57085168 -0.29508126 -4.57085168 -0.29508126 0 0 Z " fill="#C7C7C5" transform="translate(366,34)"/>
<path d="M0 0 C1.66021582 0.00271166 3.32043967 0.01792116 4.98046875 0.04296875 C5.85670898 0.04941406 6.73294922 0.05585937 7.63574219 0.0625 C17.49089298 0.17429186 27.32926271 0.67728849 37.16796875 1.23046875 C37.16796875 1.89046875 37.16796875 2.55046875 37.16796875 3.23046875 C17.36796875 2.73546875 17.36796875 2.73546875 -2.83203125 2.23046875 C-3.16203125 2.89046875 -3.49203125 3.55046875 -3.83203125 4.23046875 C-4.49203125 3.57046875 -5.15203125 2.91046875 -5.83203125 2.23046875 C-3.83203125 0.23046875 -3.83203125 0.23046875 0 0 Z " fill="#C1C0BF" transform="translate(243.83203125,34.76953125)"/>
<path d="M0 0 C12.87 0 25.74 0 39 0 C39 0.33 39 0.66 39 1 C36.36 1 33.72 1 31 1 C31 3.31 31 5.62 31 8 C32.32 8.33 33.64 8.66 35 9 C34.34 9.66 33.68 10.32 33 11 C33.495 11.99 33.495 11.99 34 13 C33.01 13 32.02 13 31 13 C29.59123595 8.77370786 30 5.89096249 30 1 C23.4 1 16.8 1 10 1 C9.67 1.66 9.34 2.32 9 3 C9 2.34 9 1.68 9 1 C6.03 1 3.06 1 0 1 C0 0.67 0 0.34 0 0 Z " fill="#DADAD9" transform="translate(281,36)"/>
<path d="M0 0 C3 2 3 2 3.58203125 4.6171875 C4.13225688 12.39495318 3.66123241 19.38029765 2 27 C1.67 27 1.34 27 1 27 C-0.06996173 17.98175113 -0.10234659 9.06335876 0 0 Z " fill="#413E40" transform="translate(230,110)"/>
<path d="M0 0 C2.21934455 3.32901683 2.27129898 4.48793637 2.25 8.375 C2.25515625 9.31085937 2.2603125 10.24671875 2.265625 11.2109375 C1.98635261 14.14329762 1.22149016 16.33404925 0 19 C-0.66 19 -1.32 19 -2 19 C-2.29530838 12.50321562 -1.17293889 6.3778552 0 0 Z " fill="#A3A3A3" transform="translate(236,42)"/>
<path d="M0 0 C0.99 0 1.98 0 3 0 C3.8723412 2.99480917 4.10829766 5.63575911 4.0625 8.75 C4.05347656 9.54921875 4.04445313 10.3484375 4.03515625 11.171875 C4.01775391 12.07679687 4.01775391 12.07679687 4 13 C3.01 12.34 2.02 11.68 1 11 C0.48828125 8.3984375 0.48828125 8.3984375 0.3125 5.375 C0.24675781 4.37210938 0.18101562 3.36921875 0.11328125 2.3359375 C0.07589844 1.56507812 0.03851563 0.79421875 0 0 Z " fill="#838383" transform="translate(365,46)"/>
<path d="M0 0 C2.12472576 -0.05386629 4.24983652 -0.09273071 6.375 -0.125 C7.55835938 -0.14820313 8.74171875 -0.17140625 9.9609375 -0.1953125 C13 0 13 0 15 2 C13.25093341 2.19601608 11.50068154 2.38147403 9.75 2.5625 C8.77546875 2.66691406 7.8009375 2.77132812 6.796875 2.87890625 C4.2368648 2.98974468 2.41851841 2.77738092 0 2 C0 1.34 0 0.68 0 0 Z " fill="#1D1D1E" transform="translate(294,44)"/>
<path d="M0 0 C0.33 0.99 0.66 1.98 1 3 C-2.61973402 4.31626692 -5.09567131 5 -9 5 C-9 4.01 -9 3.02 -9 2 C-6.03 1.34 -3.06 0.68 0 0 Z " fill="#D3D2D1" transform="translate(363,35)"/>
<path d="M0 0 C1.47906892 -0.02689216 2.95827483 -0.04634621 4.4375 -0.0625 C5.26121094 -0.07410156 6.08492188 -0.08570313 6.93359375 -0.09765625 C9 0 9 0 10 1 C10.14115161 3.67058851 10.04247107 6.32432238 10 9 C9.67 9 9.34 9 9 9 C9 7.02 9 5.04 9 3 C6.03 2.67 3.06 2.34 0 2 C0 1.34 0 0.68 0 0 Z " fill="#939393" transform="translate(357,34)"/>
<path d="M0 0 C0 1.32 0 2.64 0 4 C-5.94 3.01 -5.94 3.01 -12 2 C-12 1.67 -12 1.34 -12 1 C-7.9472484 0.01751476 -4.16138263 -0.08159574 0 0 Z " fill="#7C7C7D" transform="translate(309,41)"/>
<path d="M0 0 C0.125 5.75 0.125 5.75 -1 8 C-1.66 8 -2.32 8 -3 8 C-3 5.69 -3 3.38 -3 1 C-1 0 -1 0 0 0 Z " fill="#B3B3B3" transform="translate(237,53)"/>
<path d="M0 0 C0.33 0 0.66 0 1 0 C1 1.98 1 3.96 1 6 C2.98 6.495 2.98 6.495 5 7 C4.34 7.66 3.68 8.32 3 9 C3.33 9.66 3.66 10.32 4 11 C3.01 11 2.02 11 1 11 C-0.17571451 7.32589215 -0.07366746 3.83070817 0 0 Z " fill="#C6C4C1" transform="translate(311,38)"/>
<path d="M0 0 C0 1.32 0 2.64 0 4 C-1.32 4 -2.64 4 -4 4 C-4 3.34 -4 2.68 -4 2 C-5.32 1.67 -6.64 1.34 -8 1 C-5.23735711 0.40267181 -2.83967231 0 0 0 Z " fill="#454546" transform="translate(312,45)"/>
</svg>
