<?xml version="1.0" encoding="UTF-8"?>
<svg version="1.1" xmlns="http://www.w3.org/2000/svg" width="565" height="372">
<path d="M0 0 C186.45 0 372.9 0 565 0 C565 122.76 565 245.52 565 372 C378.55 372 192.1 372 0 372 C0 249.24 0 126.48 0 0 Z " fill="#FEFEFE" transform="translate(0,0)"/>
<path d="M0 0 C2.1640625 0.0234375 2.1640625 0.0234375 4.625 0.375 C5.85089844 0.54128906 5.85089844 0.54128906 7.1015625 0.7109375 C7.72804687 0.80632813 8.35453125 0.90171875 9 1 C9 1.66 9 2.32 9 3 C16.97246263 2.89161433 24.94484637 2.77881878 32.91716957 2.66066074 C36.62053521 2.60590592 40.32390907 2.55257178 44.02734375 2.50268555 C47.61303715 2.45432968 51.19865352 2.40197952 54.78425217 2.34705925 C56.79229763 2.317285 58.80040048 2.29146354 60.8085022 2.26576233 C69.24220535 2.13228716 77.59408594 1.6898546 86 1 C86.495 2.98 86.495 2.98 87 5 C87.66 5 88.32 5 89 5 C90.23724908 7.54727751 90.97937557 9.59782358 91.125 12.4375 C89.57268478 15.97332912 87.11276324 17.29541341 83.9921875 19.4609375 C81.2785324 21.55736909 79.78894925 24.10066845 78 27 C76.35697047 28.68997323 74.68528688 30.35216394 73 32 C70.74425294 34.51871211 68.50803947 37.05331405 66.28125 39.59765625 C64 42 64 42 61.3203125 44.01171875 C58.70890888 46.24943667 58.16133823 47.45786394 57.375 50.75 C56.55372725 53.96469618 55.65626423 56.9062179 54.3125 59.9375 C52.05341894 65.78035887 52.53871568 72.07807231 53.50043392 78.16991425 C54.02098751 82.16090754 54.16912165 86.07368079 54.19618225 90.08996582 C54.20971455 91.26903433 54.20971455 91.26903433 54.22352022 92.4719224 C54.25245723 95.09128188 54.27478794 97.71065463 54.29711914 100.33007812 C54.31657565 102.21495468 54.33643785 104.09982709 54.35667419 105.98469543 C54.41040466 111.09926302 54.45837311 116.21387019 54.50525212 121.32850456 C54.55543359 126.70296262 54.61071799 132.07736831 54.66539001 137.45178223 C54.7566487 146.49370554 54.84447364 155.5356568 54.92993164 164.57763672 C55.03901564 176.11817874 55.15334152 187.65866218 55.26950932 199.19913483 C55.36997308 209.18028439 55.46835386 219.16145433 55.56622386 229.14262962 C55.58710488 231.26918288 55.60805423 233.39573547 55.62907338 235.52228737 C55.65978 238.62915521 55.69027165 241.73602511 55.72071838 244.84289551 C55.73058362 245.83802674 55.74044885 246.83315797 55.75061303 247.85844469 C55.79711075 252.62686841 55.83920347 257.39524726 55.87066746 262.16379547 C55.88258956 263.92649917 55.89462019 265.68920214 55.9067688 267.4519043 C55.9124768 268.28781082 55.9181848 269.12371734 55.92406577 269.98495436 C55.96360623 274.86433408 56.06760162 279.73561705 56.22677612 284.61254883 C56.25353896 285.69136574 56.2803018 286.77018265 56.30787563 287.88169098 C56.35619101 289.73534606 56.42591966 291.58868398 56.52593327 293.44026947 C56.6402167 298.87698012 55.32647279 301.76364942 51.8101511 305.91042328 C45.88386048 311.94848819 45.88386048 311.94848819 42 312.0546875 C35.99281242 308.88683468 31.11421904 305.15858708 28 299 C27.29343189 294.9080111 27.4528117 290.93943065 27.62915039 286.80151367 C27.68183684 284.36868688 27.73433126 281.93585593 27.78665161 279.50302124 C27.82398029 278.25740292 27.86130898 277.01178459 27.89976883 275.72842026 C28.05714359 269.87436068 28.0581288 264.02111187 28.07592773 258.1652832 C28.09157374 255.78159195 28.10856187 253.39790916 28.1268158 251.01423645 C28.14058415 249.19403457 28.14058415 249.19403457 28.15463066 247.33706093 C28.16896739 245.46285249 28.16896739 245.46285249 28.18359375 243.55078125 C28.19852417 241.55717559 28.21345427 239.56356993 28.22836262 237.56996411 C28.27528481 231.30631856 28.32346856 225.04268354 28.37231445 218.77905273 C28.41589311 213.18661768 28.45750956 207.59417214 28.49731445 202.00170898 C28.70716705 172.59691292 28.97495267 143.19451737 29.47265625 113.79296875 C29.49134703 112.62350519 29.5100378 111.45404163 29.52929497 110.24913979 C30.02540959 79.73423054 30.02540959 79.73423054 32 70 C32.39290951 63.64685297 31.33573943 58.63040994 29.3125 52.625 C28.94608398 51.41650391 28.94608398 51.41650391 28.57226562 50.18359375 C27.13915567 45.54317831 27.13915567 45.54317831 23.515625 42.578125 C22.68546875 42.38734375 21.8553125 42.1965625 21 42 C11.91830416 37.66422263 4.52883142 29.45617583 -1.67578125 21.68359375 C-3.78371592 18.7887122 -3.78371592 18.7887122 -7 18 C-7.75 15.875 -7.75 15.875 -8 13 C-6.1875 10 -6.1875 10 -4 7 C-3.32033324 5.33859237 -2.65061095 3.67299959 -2 2 C-1.34 1.34 -0.68 0.68 0 0 Z " fill="#342F2C" transform="translate(240,27)"/>
<path d="M0 0 C14.52 0 29.04 0 44 0 C43.01 1.65 42.02 3.3 41 5 C40.67 5.825 40.34 6.65 40 7.5 C39 10 39 10 37.625 12.1875 C35.26980378 16.26380115 33.67920969 20.61018786 32 25 C25.58311325 25.10349817 19.37305598 24.74507544 13 24 C12.66226562 23.18015625 12.32453125 22.3603125 11.9765625 21.515625 C11.53054688 20.43796875 11.08453125 19.3603125 10.625 18.25 C10.18414062 17.18265625 9.74328125 16.1153125 9.2890625 15.015625 C7.18095869 9.69603336 7.18095869 9.69603336 3 6 C2.67 5.01 2.34 4.02 2 3 C1.34 2.67 0.68 2.34 0 2 C0 1.34 0 0.68 0 0 Z " fill="#F2F2F1" transform="translate(260,46)"/>
<path d="M0 0 C0.66 0 1.32 0 2 0 C1.67 0.99 1.34 1.98 1 3 C0.90536652 4.7479361 0.87011037 6.49951087 0.875 8.25 C0.87242187 9.16265625 0.86984375 10.0753125 0.8671875 11.015625 C0.9433034 14.02422573 0.9433034 14.02422573 1.49546814 17.05738831 C2.09608323 21.75083237 2.17573134 26.33992496 2.20532227 31.06616211 C2.21522186 32.05229492 2.22512146 33.03842773 2.23532104 34.05444336 C2.26676417 37.29538621 2.29162518 40.53634369 2.31640625 43.77734375 C2.33699063 46.03178781 2.35798749 48.28622813 2.37937927 50.54066467 C2.43444664 56.46055063 2.4839233 62.38047054 2.53222656 68.30041504 C2.58255385 74.34679162 2.6381812 80.39311921 2.69335938 86.43945312 C2.80075327 98.29292684 2.90223959 110.14644319 3 122 C2.67 122 2.34 122 2 122 C0.93957031 113.03823159 0.68747044 104.0973303 0.46484375 95.0859375 C0.42163609 93.42810544 0.37822032 91.77027879 0.33460999 90.11245728 C0.24399071 86.63443645 0.1560781 83.15636043 0.07006836 79.67822266 C-0.03783245 75.32419014 -0.15267262 70.97037474 -0.26947975 66.61657333 C-0.72285597 49.61241807 -1.08853381 32.61228655 -1.12109375 15.6015625 C-1.12379839 14.91287457 -1.12650303 14.22418663 -1.12928963 13.51462936 C-1.13542818 11.60172234 -1.13325719 9.68879395 -1.13061523 7.77587891 C-1.1298851 6.70270416 -1.12915497 5.62952942 -1.12840271 4.52383423 C-1 2 -1 2 0 0 Z " fill="#787371" transform="translate(292,88)"/>
</svg>
