<?xml version="1.0" encoding="UTF-8"?>
<svg version="1.1" xmlns="http://www.w3.org/2000/svg" width="650" height="496">
<path d="M0 0 C214.5 0 429 0 650 0 C650 163.68 650 327.36 650 496 C435.5 496 221 496 0 496 C0 332.32 0 168.64 0 0 Z " fill="#FEFEFE" transform="translate(0,0)"/>
<path d="M0 0 C101.64 0 203.28 0 308 0 C308 150.81 308 301.62 308 457 C206.36 457 104.72 457 0 457 C0 306.19 0 155.38 0 0 Z " fill="#E7E6E7" transform="translate(170,21)"/>
<path d="M0 0 C1.84704006 3.46790424 2.41123585 6.21080379 2.78125 10.14453125 C2.95938232 11.98023682 2.95938232 11.98023682 3.14111328 13.85302734 C3.2595459 15.15965332 3.37797852 16.4662793 3.5 17.8125 C3.62812084 19.16363341 3.75686975 20.51470739 3.88623047 21.86572266 C4.76497891 31.11845122 5.58795667 40.37711994 6.35351562 49.63989258 C6.42505859 50.4986499 6.49660156 51.35740723 6.5703125 52.2421875 C6.62977051 52.9729248 6.68922852 53.70366211 6.75048828 54.45654297 C6.95538716 56.54522838 7.22361778 58.62760725 7.50927734 60.70678711 C8.08926152 65.28729471 8.20611347 69.83654339 8.28125 74.44921875 C8.30886414 75.78917656 8.30886414 75.78917656 8.33703613 77.15620422 C8.39528955 79.99990793 8.44815751 82.84367274 8.5 85.6875 C8.56936489 89.39981807 8.64195317 93.11204678 8.71875 96.82421875 C8.73780899 97.75348679 8.75686798 98.68275482 8.77650452 99.6401825 C8.91850803 105.92408486 9.19197881 112.19252381 9.52734375 118.46875 C10.10911468 129.58577434 10.112911 140.68308369 10.0625 151.8125 C10.05746397 153.7884103 10.05290486 155.76432187 10.04882812 157.74023438 C10.03801427 162.4935222 10.02087155 167.24674615 10 172 C6.58422131 172.34285445 3.16727627 172.67243725 -0.25 173 C-1.673125 173.14308594 -1.673125 173.14308594 -3.125 173.2890625 C-10.10190957 173.94904043 -16.99404754 174.11135289 -24 174 C-24.17390259 172.87972412 -24.17390259 172.87972412 -24.35131836 171.73681641 C-24.87660077 168.3656636 -25.40698461 164.99533308 -25.9375 161.625 C-26.11990234 160.449375 -26.30230469 159.27375 -26.49023438 158.0625 C-26.66748047 156.94101562 -26.84472656 155.81953125 -27.02734375 154.6640625 C-27.18968506 153.62717285 -27.35202637 152.5902832 -27.51928711 151.52197266 C-27.87841872 149.01663518 -27.87841872 149.01663518 -29 147 C-29.039992 145.00039988 -29.04346799 142.99952758 -29 141 C-27.68 141 -26.36 141 -25 141 C-25.66 139.68 -26.32 138.36 -27 137 C-26.34 137 -25.68 137 -25 137 C-25.66 136.01 -26.32 135.02 -27 134 C-26.625 130.8125 -26.625 130.8125 -26 128 C-26.66 128 -27.32 128 -28 128 C-28.14285714 120.57142857 -28.14285714 120.57142857 -27 117 C-26.34 117 -25.68 117 -25 117 C-25.12568359 115.68902344 -25.12568359 115.68902344 -25.25390625 114.3515625 C-26.04403203 104.81004356 -25.87084771 95.5701552 -25.1484375 86.02832031 C-25.01501839 84.20521843 -24.91183477 82.37996384 -24.8125 80.5546875 C-24.750625 79.58789062 -24.68875 78.62109375 -24.625 77.625 C-24.57601563 76.81289063 -24.52703125 76.00078125 -24.4765625 75.1640625 C-23.89548235 72.52538707 -22.6563515 71.10083241 -21 69 C-21.06582275 69.90016846 -21.13164551 70.80033691 -21.19946289 71.7277832 C-22.95710019 93.41639109 -22.95710019 93.41639109 -22.36938477 115.1262207 C-21.91495039 120.22972449 -22.28656383 124.95263989 -23 130 C-21.35 130.99 -19.7 131.98 -18 133 C-18.495 133.99 -18.495 133.99 -19 135 C-19.66 135 -20.32 135 -21 135 C-20.34 135.474375 -19.68 135.94875 -19 136.4375 C-16.10341024 140.14875563 -16.65030554 143.45397207 -17 148 C-16.34 148.33 -15.68 148.66 -15 149 C-14.67 156.59 -14.34 164.18 -14 172 C-12.02 171.67 -10.04 171.34 -8 171 C-2.90629232 170.2095011 1.85678442 169.79830527 7 170 C6.7525 168.72576172 6.7525 168.72576172 6.5 167.42578125 C5.99087397 163.9374724 5.93786462 160.70979946 6 157.1875 C6.06701758 148.76003941 5.57610062 140.40489661 5 132 C4.34 132.66 3.68 133.32 3 134 C3.24363281 133.21109375 3.24363281 133.21109375 3.4921875 132.40625 C5.69185962 121.98318825 3.93517192 109.68964367 3.625 99.125 C3.59422363 97.87009766 3.56344727 96.61519531 3.53173828 95.32226562 C3.47348877 93.55786133 3.47348877 93.55786133 3.4140625 91.7578125 C3.3826416 90.6970752 3.3512207 89.63633789 3.31884766 88.54345703 C3.2434591 85.83435188 3.2434591 85.83435188 1 84 C0.68115234 80.92724609 0.68115234 80.92724609 0.5859375 77.0234375 C0.56657135 76.33819 0.5472052 75.6529425 0.5272522 74.94692993 C0.46743169 72.75641356 0.42106244 70.5658447 0.375 68.375 C0.33682237 66.89060198 0.29777076 65.40622616 0.2578125 63.921875 C0.16172916 60.28145315 0.07770718 56.64086564 0 53 C-0.33 53 -0.66 53 -1 53 C-0.75552124 51.59995728 -0.75552124 51.59995728 -0.50610352 50.17163086 C0.19927895 45.20533707 0.12429551 40.26076223 0.09765625 35.25390625 C0.09553383 33.7372361 0.09553383 33.7372361 0.09336853 32.18992615 C0.08779961 28.98075319 0.07525287 25.77165164 0.0625 22.5625 C0.05748098 20.37825622 0.05291878 18.19401134 0.04882812 16.00976562 C0.03784037 10.67315298 0.02113336 5.3365816 0 0 Z " fill="#CECFD1" transform="translate(446,255)"/>
<path d="M0 0 C0.99 0.495 0.99 0.495 2 1 C1.98259766 2.06541016 1.98259766 2.06541016 1.96484375 3.15234375 C1.95582031 4.07144531 1.94679688 4.99054688 1.9375 5.9375 C1.92009766 7.31228516 1.92009766 7.31228516 1.90234375 8.71484375 C1.74050951 10.96593327 1.74050951 10.96593327 3 12 C2.95875 12.9075 2.9175 13.815 2.875 14.75 C3.01665306 18.43297954 4.09419446 19.93413892 6 23 C5.67 23.99 5.34 24.98 5 26 C4.01 24.68 3.02 23.36 2 22 C1.98018066 22.65895264 1.96036133 23.31790527 1.93994141 23.99682617 C1.73903049 30.35327018 1.47735213 36.70400392 1.14892578 43.05517578 C1.06027113 44.80821246 0.97998388 46.56175419 0.91748047 48.31591797 C0.55194087 57.5509656 0.55194087 57.5509656 -3.1796875 61.03515625 C-5.74076166 62.64247727 -8.19859169 63.87019665 -11 65 C-11.78761719 65.35707031 -12.57523438 65.71414063 -13.38671875 66.08203125 C-20.54749161 68.59739989 -28.09805618 68.12723841 -35.5859375 68.08203125 C-36.87728607 68.07782669 -38.16863464 68.07362213 -39.49911499 68.06929016 C-43.18503161 68.05636902 -46.87087472 68.03578828 -50.55674744 68.01386261 C-53.09418163 67.99946563 -55.63161822 67.98745709 -58.16906738 67.97601318 C-68.66347272 67.92778677 -79.15750691 67.8589727 -89.65159988 67.76426506 C-94.67364357 67.71920081 -99.69559351 67.67989489 -104.71777344 67.65356445 C-109.67382196 67.62743666 -114.62956937 67.58705379 -119.58543015 67.53681374 C-121.44550231 67.5203116 -123.30562537 67.50869493 -125.16576004 67.50238609 C-144.72391227 67.42903915 -158.85435787 63.98658251 -174 51 C-173.67 50.34 -173.34 49.68 -173 49 C-172.27296875 49.59167969 -171.5459375 50.18335938 -170.796875 50.79296875 C-161.31831917 58.24214147 -151.50704978 63.9715651 -139.11791992 64.20532227 C-138.17732224 64.22526749 -137.23672455 64.24521271 -136.2676239 64.26576233 C-135.2653627 64.28247482 -134.2631015 64.29918732 -133.23046875 64.31640625 C-131.67625969 64.3475779 -131.67625969 64.3475779 -130.09065247 64.37937927 C-126.78966735 64.4446213 -123.48860451 64.50364179 -120.1875 64.5625 C-117.94595559 64.60570932 -115.70441897 64.64932438 -113.46289062 64.69335938 C-107.97534193 64.80027667 -102.48771639 64.90208962 -97 65 C-96.34 63.35 -95.68 61.7 -95 60 C-94.67 60 -94.34 60 -94 60 C-94 61.65 -94 63.3 -94 65 C-84.75054849 65.04645583 -75.50113751 65.08193631 -66.25159454 65.10362434 C-61.95609906 65.11403646 -57.66068374 65.12814841 -53.36523438 65.15087891 C-49.21552244 65.17269936 -45.06588734 65.18458795 -40.91612244 65.18975449 C-39.33738497 65.19343378 -37.75865143 65.20061833 -36.1799469 65.21146011 C-33.95906673 65.22609768 -31.7384992 65.22797288 -29.51757812 65.22705078 C-27.62561707 65.23371262 -27.62561707 65.23371262 -25.69543457 65.24050903 C-19.88115137 64.86209951 -14.46452442 63.42823235 -9.125 61.0625 C-8.38507813 60.74410156 -7.64515625 60.42570312 -6.8828125 60.09765625 C-4.68234198 58.99957506 -4.68234198 58.99957506 -3 56 C-2.54498853 53.96422704 -2.54498853 53.96422704 -2.3671875 51.7109375 C-2.24138306 50.43536987 -2.24138306 50.43536987 -2.11303711 49.1340332 C-2.03448486 48.22355225 -1.95593262 47.31307129 -1.875 46.375 C-1.78935791 45.43293701 -1.70371582 44.49087402 -1.61547852 43.52026367 C-1.07196966 37.0899187 -0.87050862 30.73233607 -0.96826172 24.28295898 C-1.07892942 16.16829854 -0.53013082 8.09396156 0 0 Z " fill="#D1D1D2" transform="translate(411,368)"/>
<path d="M0 0 C0.90621094 0.51949219 1.81242187 1.03898437 2.74609375 1.57421875 C3.33156982 1.909375 3.9170459 2.24453125 4.52026367 2.58984375 C5.80858347 3.32743267 7.0965008 4.06572497 8.3840332 4.8046875 C11.79269131 6.75665045 15.21803362 8.65763738 18.6875 10.5 C32.90362051 18.43887249 43.46862626 28.43313391 49 44 C49.38528604 45.99064456 49.73518068 47.98978065 50 50 C50.66 50 51.32 50 52 50 C53.51527659 57.57638295 53.41763151 63.74710546 51 71 C50.67 71 50.34 71 50 71 C49.87939209 70.16190796 49.87939209 70.16190796 49.75634766 69.30688477 C49.3827344 66.7249027 49.00389355 64.14371228 48.625 61.5625 C48.49867188 60.68400391 48.37234375 59.80550781 48.2421875 58.90039062 C47.07736495 47.66735356 47.07736495 47.66735356 42 38 C40.9935725 36.33720673 39.99414593 34.67016516 39 33 C36.66349214 28.68107001 36.66349214 28.68107001 32.75 26.125 C32.1725 26.08375 31.595 26.0425 31 26 C30.505 24.02 30.505 24.02 30 22 C28.783125 22.391875 27.56625 22.78375 26.3125 23.1875 C23.03182139 24.02078071 22.26126382 24.10885993 19 22.75 C18.34 22.1725 17.68 21.595 17 21 C17 20.34 17 19.68 17 19 C15.35 18.34 13.7 17.68 12 17 C12.33 15.35 12.66 13.7 13 12 C12.35933594 11.82984375 11.71867187 11.6596875 11.05859375 11.484375 C5.49634683 9.92595112 0.88676286 8.08078528 -4 5 C-3.34 4.67 -2.68 4.34 -2 4 C-0.86649466 1.98330173 -0.86649466 1.98330173 0 0 Z " fill="#BFC0C2" transform="translate(387,118)"/>
<path d="M0 0 C1.14513633 3.435409 0.93147306 5.58851235 0.625 9.1875 C0.52630615 10.4350708 0.4276123 11.6826416 0.32592773 12.96801758 C0.272341 13.6266983 0.21875427 14.28537903 0.1635437 14.96401978 C-0.6703696 25.34553229 -1.29956639 35.57075764 -0.36914062 45.97460938 C0.07906165 51.13139823 -0.27647444 55.90125538 -1 61 C0.65 61.99 2.3 62.98 4 64 C3.505 64.99 3.505 64.99 3 66 C2.34 66 1.68 66 1 66 C1.350625 66.78375 1.70125 67.5675 2.0625 68.375 C2.371875 69.24125 2.68125 70.1075 3 71 C2.505 71.99 2.505 71.99 2 73 C1.97205205 74.56381471 2.01135346 76.12912114 2.0859375 77.69140625 C2.12976563 78.63693359 2.17359375 79.58246094 2.21875 80.55664062 C2.2703125 81.54857422 2.321875 82.54050781 2.375 83.5625 C2.41882813 84.52736328 2.46265625 85.49222656 2.5078125 86.48632812 C2.79336681 92.36002172 3.28914758 98.16257635 4 104 C2.02 104 0.04 104 -2 104 C-2.11593506 103.28344238 -2.23187012 102.56688477 -2.35131836 101.82861328 C-2.87667357 98.59351736 -3.40702266 95.35925979 -3.9375 92.125 C-4.11990234 90.99707031 -4.30230469 89.86914062 -4.49023438 88.70703125 C-4.66748047 87.63066406 -4.84472656 86.55429687 -5.02734375 85.4453125 C-5.18968506 84.45031738 -5.35202637 83.45532227 -5.51928711 82.43017578 C-5.88767373 80.00369478 -5.88767373 80.00369478 -7 78 C-7.039992 76.00039988 -7.04346799 73.99952758 -7 72 C-5.68 72 -4.36 72 -3 72 C-3.66 70.68 -4.32 69.36 -5 68 C-4.34 68 -3.68 68 -3 68 C-3.66 67.01 -4.32 66.02 -5 65 C-4.625 61.8125 -4.625 61.8125 -4 59 C-4.66 59 -5.32 59 -6 59 C-6.14285714 51.57142857 -6.14285714 51.57142857 -5 48 C-4.34 48 -3.68 48 -3 48 C-3.08378906 47.12601562 -3.16757812 46.25203125 -3.25390625 45.3515625 C-4.04392639 35.81131928 -3.87302114 26.5692136 -3.15283203 17.02832031 C-3.01542076 15.20465761 -2.89528755 13.37971264 -2.77734375 11.5546875 C-2.45527055 7.16278018 -2.19082341 3.88494192 0 0 Z " fill="#CDCCD0" transform="translate(424,324)"/>
<path d="M0 0 C1.3399635 3.7098117 0.61674608 6.22315548 -0.40234375 9.96875 C-2.01705188 16.56344199 -2.4698975 22.73297187 -2.5625 29.5 C-2.62286418 31.95581608 -2.6868623 34.4115447 -2.75390625 36.8671875 C-2.78887207 38.17268555 -2.82383789 39.47818359 -2.85986328 40.82324219 C-3.09409419 48.43021298 -3.56643421 56.02735424 -4 63.625 C-4.60708471 74.35253267 -5.14500223 85.0729956 -5.5 95.8125 C-5.8097871 104.99496256 -6.44287927 114.11286459 -7.26513672 123.26293945 C-8.14303959 133.16299539 -8.60695317 143.07039596 -9 153 C-9.99 153.33 -10.98 153.66 -12 154 C-12.02722517 151.79173622 -12.04649729 149.58337362 -12.0625 147.375 C-12.07410156 146.14523437 -12.08570313 144.91546875 -12.09765625 143.6484375 C-12 140 -12 140 -11.51147461 137.14916992 C-11.00847087 134.05215549 -10.81210642 131.09898757 -10.71875 127.96484375 C-10.68136719 126.82466797 -10.64398438 125.68449219 -10.60546875 124.50976562 C-10.57066406 123.33091797 -10.53585938 122.15207031 -10.5 120.9375 C-10.29335866 114.09920232 -10.05531875 107.28461061 -9.49609375 100.46484375 C-8.95595261 93.85385562 -8.7439799 87.25410887 -8.5625 80.625 C-8.19697469 68.72451811 -7.55512734 56.87090835 -6.72412109 44.99487305 C-6.33206465 39.36022637 -5.95974626 33.74105468 -5.82421875 28.09375 C-5.56509319 17.76384726 -4.26397242 9.50346621 0 0 Z " fill="#DCDDDE" transform="translate(206,151)"/>
<path d="M0 0 C1.88915192 3.25752634 2.40618373 6.02661079 2.78125 9.7578125 C2.90000488 10.92111084 3.01875977 12.08440918 3.14111328 13.28295898 C3.2595459 14.55083252 3.37797852 15.81870605 3.5 17.125 C3.56314392 17.78879669 3.62628784 18.45259338 3.69134521 19.13650513 C6.36031585 47.33539614 7.2855284 75.44974611 7.65869141 103.76342773 C7.80271335 114.30513601 8.03709993 124.77721155 8.78833008 135.29443359 C9.18237615 142.19273959 9.10463533 149.09298619 9.0625 156 C9.05746336 157.46874843 9.05290437 158.93749859 9.04882812 160.40625 C9.03802045 163.93753686 9.02088163 167.46875657 9 171 C8.67 171 8.34 171 8 171 C7.97494385 170.12375977 7.9498877 169.24751953 7.92407227 168.34472656 C7.82785728 165.03458212 7.72870552 161.72455079 7.62768555 158.41455078 C7.58487654 156.99303524 7.54317473 155.57148585 7.50268555 154.14990234 C7.30961163 147.39469883 7.10506474 140.6584859 6.484375 133.92578125 C5.9727088 128.29508204 5.85408025 122.69165855 5.75976562 117.0402832 C5.50495684 101.88488886 4.48835786 86.89573032 3 71.8125 C0.64190323 47.79752352 -0.17370298 24.13936919 0 0 Z " fill="#B6B9BB" transform="translate(446,255)"/>
<path d="M0 0 C0.6875 2.0625 0.6875 2.0625 1 4 C-3.30750111 6.99132021 -7.63939497 9.9298236 -12.25 12.4375 C-12.85328125 12.76621094 -13.4565625 13.09492187 -14.078125 13.43359375 C-18.77139061 14.81677162 -22.73802021 12.25233266 -26.77148438 10.06835938 C-27.44501953 9.69517578 -28.11855469 9.32199219 -28.8125 8.9375 C-29.85180664 8.37192383 -29.85180664 8.37192383 -30.91210938 7.79492188 C-32.61128985 6.86916148 -34.30609425 5.93537688 -36 5 C-35.125 1.125 -35.125 1.125 -34 0 C-31.43128735 -0.24449556 -28.88759517 -0.42755324 -26.3125 -0.5625 C-25.55243652 -0.6042334 -24.79237305 -0.6459668 -24.00927734 -0.68896484 C-4.98328718 -1.66109573 -4.98328718 -1.66109573 0 0 Z " fill="#98979A" transform="translate(340,101)"/>
<path d="M0 0 C6.5514144 -0.41817539 12.12623674 1.06311837 18 4 C16.86500606 7.29148243 16.00716624 7.9959869 12.875 9.75 C11.92625 10.1625 10.9775 10.575 10 11 C9.505 9.02 9.505 9.02 9 7 C0.18233222 6.90067708 -8.62661857 6.91741456 -17.4375 7.3125 C-18.16445068 7.33497803 -18.89140137 7.35745605 -19.64038086 7.38061523 C-21.90507476 7.46570929 -21.90507476 7.46570929 -25 8 C-25.99 9.485 -25.99 9.485 -27 11 C-32.64913063 9.34292168 -37.26300637 7.52237988 -42 4 C-39.191458 1.191458 -36.40169095 1.53742918 -32.625 1.375 C-31.88491699 1.33777832 -31.14483398 1.30055664 -30.38232422 1.26220703 C-24.29855229 0.98802666 -18.21443131 0.89832264 -12.125 0.875 C-11.26342285 0.87032715 -10.4018457 0.8656543 -9.51416016 0.86083984 C-8.70769043 0.86293457 -7.9012207 0.8650293 -7.0703125 0.8671875 C-6.35633301 0.86831543 -5.64235352 0.86944336 -4.90673828 0.87060547 C-3 1 -3 1 0 2 C0 1.34 0 0.68 0 0 Z " fill="#C9C7CC" transform="translate(331,94)"/>
<path d="M0 0 C0.99 0 1.98 0 3 0 C2.85046875 0.70640625 2.7009375 1.4128125 2.546875 2.140625 C2.18817858 4.01609487 1.8839744 5.90298181 1.640625 7.796875 C0.69542188 14.94261056 -1.26702149 19.90872713 -5 26 C-7.30687183 30.87992119 -8.86390936 35.76219205 -10.25390625 40.9609375 C-11 43 -11 43 -13 44 C-14.79581959 32.77612755 -15.95686285 21.67636378 -9 12 C-8.34 11.67 -7.68 11.34 -7 11 C-6.11527822 9.55098452 -5.28893925 8.06581412 -4.5 6.5625 C-3.12830757 3.95712077 -2.09139575 2.09139575 0 0 Z " fill="#BCBCC0" transform="translate(423,277)"/>
<path d="M0 0 C0.33 0 0.66 0 1 0 C0.09327353 36.96003703 0.09327353 36.96003703 -0.5 48.75 C-0.53536865 49.50321533 -0.5707373 50.25643066 -0.60717773 51.0324707 C-0.87541498 55.87541498 -0.87541498 55.87541498 -2 57 C-4.53419615 57.13337874 -7.02694332 57.190202 -9.5625 57.1875 C-10.34302734 57.18669434 -11.12355469 57.18588867 -11.92773438 57.18505859 C-18.97280685 57.11526475 -25.977633 56.67621862 -33 56.125 C-34.05646729 56.04660889 -35.11293457 55.96821777 -36.20141602 55.88745117 C-37.18682373 55.80342041 -38.17223145 55.71938965 -39.1875 55.6328125 C-40.06792969 55.55949707 -40.94835937 55.48618164 -41.85546875 55.41064453 C-44 55 -44 55 -46 53 C-46.04345703 49.92724609 -46.04345703 49.92724609 -45.7578125 46.0234375 C-45.71059052 45.33819 -45.66336853 44.6529425 -45.61471558 43.94692993 C-45.46139889 41.75544724 -45.29337944 39.56537186 -45.125 37.375 C-45.0185622 35.89069417 -44.91308134 34.40631939 -44.80859375 32.921875 C-44.55016737 29.28038411 -44.27854347 25.6400136 -44 22 C-43.34 22 -42.68 22 -42 22 C-42.14030583 25.66689972 -42.28825421 29.33345412 -42.4375 33 C-42.49647461 34.54494141 -42.49647461 34.54494141 -42.55664062 36.12109375 C-42.79185439 41.80241075 -43.19481377 47.37046268 -44 53 C-42.69546875 53.06058594 -41.3909375 53.12117188 -40.046875 53.18359375 C-30.6801898 53.62898626 -21.33662921 54.10808623 -12 55 C-12 52.03 -12 49.06 -12 46 C-11.67 46 -11.34 46 -11 46 C-10.505 50.455 -10.505 50.455 -10 55 C-8.02 55 -6.04 55 -4 55 C-4.01160156 53.81664062 -4.02320313 52.63328125 -4.03515625 51.4140625 C-4.13840228 36.41320873 -4.13840228 36.41320873 -3.28125 29.47265625 C-2.9297177 26.38210142 -2.75333759 23.29201863 -2.5625 20.1875 C-2.09954984 13.3851194 -1.14930712 6.71730956 0 0 Z " fill="#CECFCF" transform="translate(234,374)"/>
<path d="M0 0 C0.99 0.66 1.98 1.32 3 2 C2.55120234 4.62696231 2.09145886 7.25116893 1.625 9.875 C1.43550781 10.99455078 1.43550781 10.99455078 1.2421875 12.13671875 C0.2265625 17.7734375 0.2265625 17.7734375 -2 20 C-2 19.34 -2 18.68 -2 18 C-3.44098611 18.76429661 -4.87766054 19.53672555 -6.3125 20.3125 C-7.11300781 20.74175781 -7.91351563 21.17101562 -8.73828125 21.61328125 C-10.99449944 22.85066629 -10.99449944 22.85066629 -12.375 24.51953125 C-14.82114715 26.74811243 -17.55823137 27.36686805 -20.6875 28.375 C-25.57884333 30.01398742 -29.80419718 31.88628169 -34.0625 34.8046875 C-37.09926234 36.67817394 -40.37046881 37.85837607 -43.703125 39.10546875 C-46.01621181 39.94604627 -46.01621181 39.94604627 -48.109375 41.17578125 C-50 42 -50 42 -53 41 C-52.25786255 40.62584961 -52.25786255 40.62584961 -51.50073242 40.24414062 C-39.89121472 34.35680583 -28.55572979 28.0962608 -17.375 21.4375 C-16.48136246 20.90552002 -16.48136246 20.90552002 -15.56967163 20.36279297 C-6.77817313 16.11052427 -6.77817313 16.11052427 -1.26953125 9.1796875 C-1.11871094 8.08914062 -0.96789062 6.99859375 -0.8125 5.875 C-0.57466797 4.23144531 -0.57466797 4.23144531 -0.33203125 2.5546875 C-0.22246094 1.71164063 -0.11289062 0.86859375 0 0 Z M-55 42 C-54.34 42.33 -53.68 42.66 -53 43 C-53.99 43 -54.98 43 -56 43 C-55.67 42.67 -55.34 42.34 -55 42 Z " fill="#C8C9CB" transform="translate(281,89)"/>
<path d="M0 0 C2.33294775 -0.04241723 4.66702567 -0.04092937 7 0 C8.91683875 1.91683875 8.51530552 5.31654192 8.75390625 7.87890625 C8.81907944 8.5655687 8.88425262 9.25223114 8.95140076 9.95970154 C9.15928893 12.16026435 9.36095738 14.36134782 9.5625 16.5625 C9.70206573 18.05147061 9.84203442 19.54040351 9.98242188 21.02929688 C10.32629738 24.6857713 10.66459582 28.34273768 11 32 C9.02 32 7.04 32 5 32 C4.82609741 30.92516357 4.82609741 30.92516357 4.64868164 29.82861328 C4.12332643 26.59351736 3.59297734 23.35925979 3.0625 20.125 C2.88009766 18.99707031 2.69769531 17.86914062 2.50976562 16.70703125 C2.33251953 15.63066406 2.15527344 14.55429687 1.97265625 13.4453125 C1.81031494 12.45031738 1.64797363 11.45532227 1.48071289 10.43017578 C1.11232627 8.00369478 1.11232627 8.00369478 0 6 C-0.039992 4.00039988 -0.04346799 1.99952758 0 0 Z " fill="#A9A8AC" transform="translate(417,396)"/>
<path d="M0 0 C4.77770991 0.97030753 8.23208027 2.90796731 11 7 C11.3203125 10.04296875 11.3203125 10.04296875 11.3125 13.4375 C11.39962605 18.14401865 11.39962605 18.14401865 13.66796875 22.08203125 C16.35123263 24.00121664 19.06075446 25.49579787 22 27 C23.48324092 27.803281 24.96490531 28.60947722 26.4453125 29.41796875 C30.60228567 31.66850398 34.79173234 33.84704636 39 36 C35.87488087 36.99355203 35.19553766 37.0787723 31.984375 35.78515625 C30.91703125 35.21667969 29.8496875 34.64820313 28.75 34.0625 C27.67234375 33.49660156 26.5946875 32.93070313 25.484375 32.34765625 C24.66453125 31.90292969 23.8446875 31.45820312 23 31 C23 30.34 23 29.68 23 29 C20.69 28.34 18.38 27.68 16 27 C16.66 28.32 17.32 29.64 18 31 C14.04 31.495 14.04 31.495 10 32 C6.67135128 25.48139625 6.14088691 19.98316071 7.6875 12.8125 C8.11397771 8.97420065 7.08989911 7.20451197 5 4 C2.44860147 1.65674336 2.44860147 1.65674336 0 0 Z " fill="#C5C6CA" transform="translate(347,81)"/>
<path d="M0 0 C0.90621094 0.51949219 1.81242187 1.03898437 2.74609375 1.57421875 C3.97652976 2.27870302 5.20700092 2.98312589 6.4375 3.6875 C7.07695557 4.05399658 7.71641113 4.42049316 8.37524414 4.7980957 C11.87589434 6.80054703 15.39121626 8.76659631 18.9375 10.6875 C22.85734295 12.84561578 26.41236515 15.32835703 30 18 C29.67 18.66 29.34 19.32 29 20 C23.94744036 19.36843005 19.70406799 17.86540627 15 16 C15 16.66 15 17.32 15 18 C14.01 17.67 13.02 17.34 12 17 C12.33 15.35 12.66 13.7 13 12 C12.35933594 11.82984375 11.71867187 11.6596875 11.05859375 11.484375 C5.49634683 9.92595112 0.88676286 8.08078528 -4 5 C-3.34 4.67 -2.68 4.34 -2 4 C-0.86649466 1.98330173 -0.86649466 1.98330173 0 0 Z " fill="#CACBCE" transform="translate(387,118)"/>
<path d="M0 0 C2.0997432 3.50588892 2.46106699 6.66908917 2.8515625 10.70703125 C2.98046875 12.01607422 3.109375 13.32511719 3.2421875 14.67382812 C3.3050293 15.35388916 3.36787109 16.0339502 3.43261719 16.73461914 C3.62347445 18.79602291 3.82630463 20.85596977 4.03125 22.91601562 C4.61419513 28.97448104 5.07299587 34.90873808 5 41 C4.67 41 4.34 41 4 41 C3.83910944 51.23456641 3.83910944 51.23456641 4.5 61.4375 C5.27134149 68.60771666 5.08131745 75.79888816 5 83 C4.67 83 4.34 83 4 83 C1.20143183 55.25916009 -0.20080598 27.90585224 0 0 Z " fill="#C4C5C8" transform="translate(446,255)"/>
<path d="M0 0 C1.33613364 3.7036492 0.61914969 6.19924412 -0.40234375 9.9375 C-2.05999117 16.70002296 -2.46950924 23.06087836 -2.5625 30 C-2.62368646 32.4336954 -2.68893261 34.86729144 -2.7578125 37.30078125 C-2.79293945 38.55197754 -2.82806641 39.80317383 -2.86425781 41.09228516 C-3.09723528 47.79918697 -3.50044058 54.49119968 -3.9375 61.1875 C-4.01234619 62.45271484 -4.08719238 63.71792969 -4.16430664 65.02148438 C-4.28213501 66.76461914 -4.28213501 66.76461914 -4.40234375 68.54296875 C-4.46929443 69.57446045 -4.53624512 70.60595215 -4.60522461 71.66870117 C-4.73550049 72.43802979 -4.86577637 73.2073584 -5 74 C-5.99 74.495 -5.99 74.495 -7 75 C-7.28526752 62.0678724 -6.95237208 49.14534694 -6.41815186 36.22387695 C-6.34847181 34.46863218 -6.28633092 32.71306967 -6.23223877 30.95727539 C-5.87578143 19.72071308 -4.56737764 10.35350323 0 0 Z " fill="#D9D9D9" transform="translate(206,151)"/>
<path d="M0 0 C0.33 0 0.66 0 1 0 C0.0125055 40.25230814 0.0125055 40.25230814 -1 56 C-1.99 55.67 -2.98 55.34 -4 55 C-4.17900057 36.7419421 -4.17900057 36.7419421 -3.28125 29.47265625 C-2.9297177 26.38210142 -2.75333759 23.29201863 -2.5625 20.1875 C-2.09954984 13.3851194 -1.14930712 6.71730956 0 0 Z " fill="#B9B9BB" transform="translate(234,374)"/>
<path d="M0 0 C3.8125 -0.5 3.8125 -0.5 7 0 C8.25 6.625 8.25 6.625 6 10 C5.01 10 4.02 10 3 10 C2.34 9.01 1.68 8.02 1 7 C0.01 7.33 -0.98 7.66 -2 8 C-3.22520264 11.00847418 -3.22520264 11.00847418 -4 14 C-4.66 14 -5.32 14 -6 14 C-6 14.66 -6 15.32 -6 16 C-6.66 16 -7.32 16 -8 16 C-8.25523437 16.59296875 -8.51046875 17.1859375 -8.7734375 17.796875 C-10.11816498 20.21224538 -11.49214367 21.51211706 -13.625 23.25 C-14.25664062 23.77078125 -14.88828125 24.2915625 -15.5390625 24.828125 C-16.02117187 25.21484375 -16.50328125 25.6015625 -17 26 C-15.25414471 22.05963386 -12.71873469 18.70921523 -10.1875 15.25 C-7.30128068 11.30551737 -4.61960202 7.44500982 -2.3125 3.125 C-1.549375 2.09375 -0.78625 1.0625 0 0 Z " fill="#CFCFD4" transform="translate(319,114)"/>
<path d="M0 0 C6.5514144 -0.41817539 12.12623674 1.06311837 18 4 C17.34 5.32 16.68 6.64 16 8 C13.03 7.505 13.03 7.505 10 7 C10 6.34 10 5.68 10 5 C8.576875 5.0928125 8.576875 5.0928125 7.125 5.1875 C2.15672169 5.21810541 -2.3383902 3.57575543 -7 2 C-3.98968256 1.06576355 -3.13349732 0.95550089 0 2 C0 1.34 0 0.68 0 0 Z " fill="#C6C7CA" transform="translate(331,94)"/>
<path d="M0 0 C0.99 0.66 1.98 1.32 3 2 C2.55120234 4.62696231 2.09145886 7.25116893 1.625 9.875 C1.43550781 10.99455078 1.43550781 10.99455078 1.2421875 12.13671875 C0.2265625 17.7734375 0.2265625 17.7734375 -2 20 C-2 19.34 -2 18.68 -2 18 C-3.44098611 18.76429661 -4.87766054 19.53672555 -6.3125 20.3125 C-7.11300781 20.74175781 -7.91351563 21.17101562 -8.73828125 21.61328125 C-10.99451716 22.86717142 -10.99451716 22.86717142 -12.4765625 24.52734375 C-14.47234599 26.45660112 -16.48926912 27.2343507 -19.0625 28.25 C-19.94035156 28.60578125 -20.81820313 28.9615625 -21.72265625 29.328125 C-24 30 -24 30 -26 29 C-25.38253906 28.63648437 -24.76507813 28.27296875 -24.12890625 27.8984375 C-19.04112522 24.87829351 -14.0671947 21.76410625 -9.203125 18.39453125 C-7 17 -7 17 -3.7890625 15.7734375 C-0.643158 14.22708683 -0.643158 14.22708683 -0.1953125 10.64453125 C-0.17210937 9.37996094 -0.14890625 8.11539063 -0.125 6.8125 C-0.08632813 5.54019531 -0.04765625 4.26789063 -0.0078125 2.95703125 C-0.00523437 1.98121094 -0.00265625 1.00539063 0 0 Z " fill="#D3D4D7" transform="translate(281,89)"/>
<path d="M0 0 C4.00447483 7.2767958 3.15787924 16.16170769 3.125 24.25 C3.12886719 25.21679688 3.13273437 26.18359375 3.13671875 27.1796875 C3.13478516 28.58347656 3.13478516 28.58347656 3.1328125 30.015625 C3.13168457 30.85383789 3.13055664 31.69205078 3.12939453 32.55566406 C2.99371704 35.11868859 2.56199184 37.49866193 2 40 C1.67 40 1.34 40 1 40 C0.081262 31.06327905 -0.12342391 22.2292465 -0.0625 13.25 C-0.05798828 11.96867187 -0.05347656 10.68734375 -0.04882812 9.3671875 C-0.0371772 6.24474069 -0.02082025 3.12239682 0 0 Z " fill="#BCBFC1" transform="translate(446,255)"/>
<path d="M0 0 C1.07894531 0.00483398 1.07894531 0.00483398 2.1796875 0.00976562 C2.88351562 -0.00634766 3.58734375 -0.02246094 4.3125 -0.0390625 C9.08435634 -0.04349731 12.23789475 0.82432623 16.4296875 3.32226562 C16.4296875 3.65226562 16.4296875 3.98226562 16.4296875 4.32226562 C15.4396875 4.30164063 14.4496875 4.28101562 13.4296875 4.25976562 C9.34280726 4.2681062 5.46093386 4.62722315 1.4296875 5.32226562 C1.0996875 5.98226562 0.7696875 6.64226562 0.4296875 7.32226562 C-2.2103125 5.67226562 -4.8503125 4.02226563 -7.5703125 2.32226562 C-5.05550453 -0.19254234 -3.43927256 0.03542322 0 0 Z " fill="#C4C2C6" transform="translate(296.5703125,95.677734375)"/>
<path d="M0 0 C8.91 0 17.82 0 27 0 C27 0.99 27 1.98 27 3 C18.09 3 9.18 3 0 3 C0 2.01 0 1.02 0 0 Z " fill="#2E302B" transform="translate(306,101)"/>
<path d="M0 0 C0.66 0.33 1.32 0.66 2 1 C1.98839844 1.71027344 1.97679687 2.42054688 1.96484375 3.15234375 C1.95582031 4.07144531 1.94679688 4.99054688 1.9375 5.9375 C1.92589844 6.85402344 1.91429687 7.77054687 1.90234375 8.71484375 C1.74050951 10.96593327 1.74050951 10.96593327 3 12 C2.95875 12.9075 2.9175 13.815 2.875 14.75 C3.01665306 18.43297954 4.09419446 19.93413892 6 23 C5.67 23.99 5.34 24.98 5 26 C4.01 24.68 3.02 23.36 2 22 C1.67 27.94 1.34 33.88 1 40 C0.67 40 0.34 40 0 40 C-0.83429956 26.56418261 -1.07724229 13.42409627 0 0 Z " fill="#C6C6C8" transform="translate(411,368)"/>
<path d="M0 0 C1.36741827 3.74908057 0.58862516 6.33973831 -0.4375 10.125 C-1.65948502 15.06798445 -2.16468519 19.30764233 -1.97265625 24.3671875 C-2.02735795 29.63417961 -3.09121333 34.82316167 -4 40 C-4.33 40 -4.66 40 -5 40 C-6.03194763 11.84846857 -6.03194763 11.84846857 0 0 Z " fill="#D1D2D1" transform="translate(206,151)"/>
<path d="M0 0 C0.33 0 0.66 0 1 0 C3.9006685 11.80986462 3.19027115 23.9338821 3 36 C1 34 1 34 0.875 30.55078125 C0.92287051 28.43450601 0.99970647 26.32041808 1.078125 24.20507812 C1.18545938 19.41528144 0.41066222 15.62413988 -1 11 C-1.23046875 8.1640625 -1.23046875 8.1640625 -1.1875 5.625 C-1.18105469 4.77164063 -1.17460937 3.91828125 -1.16796875 3.0390625 C-1 1 -1 1 0 0 Z " fill="#CFD0D1" transform="translate(444,214)"/>
<path d="M0 0 C2.64 1.65 5.28 3.3 8 5 C7.67 5.66 7.34 6.32 7 7 C6.34 7 5.68 7 5 7 C5.66 8.65 6.32 10.3 7 12 C6.01 12.66 5.02 13.32 4 14 C1.5 12.625 1.5 12.625 -1 11 C-1 10.34 -1 9.68 -1 9 C-0.34 9 0.32 9 1 9 C0.34 8.01 -0.32 7.02 -1 6 C-0.625 2.8125 -0.625 2.8125 0 0 Z " fill="#C7C7C9" transform="translate(420,383)"/>
<path d="M0 0 C0.33 0 0.66 0 1 0 C1.04898437 1.19496094 1.09796875 2.38992188 1.1484375 3.62109375 C1.51390261 11.65288589 2.04428515 19.17714058 4 27 C4.125 30.5625 4.125 30.5625 4 33 C1.36 33 -1.28 33 -4 33 C-4 32.67 -4 32.34 -4 32 C-2.02 32 -0.04 32 2 32 C1.68417969 30.7521875 1.36835938 29.504375 1.04296875 28.21875 C-0.190843 22.66060776 -0.47992288 17.17629071 -0.6875 11.5 C-0.75807617 9.99953125 -0.75807617 9.99953125 -0.83007812 8.46875 C-1.05489929 3.04355723 -1.05489929 3.04355723 -1 1 C-0.67 0.67 -0.34 0.34 0 0 Z " fill="#BDBDC0" transform="translate(426,396)"/>
<path d="M0 0 C0.99 0 1.98 0 3 0 C2.85046875 0.70511719 2.7009375 1.41023438 2.546875 2.13671875 C2.18623848 4.02490851 1.88262034 5.92500279 1.640625 7.83203125 C0.74657548 14.65362908 -0.78412249 19.52901392 -5 25 C-5 22 -5 22 -4.0390625 19.6953125 C-2.87368615 16.67234377 -2.59329609 14.10093114 -2.375 10.875 C-2.30023438 9.84117187 -2.22546875 8.80734375 -2.1484375 7.7421875 C-2.04494418 5.83028463 -2 3.91470192 -2 2 C-1.34 1.34 -0.68 0.68 0 0 Z " fill="#CECDD1" transform="translate(423,277)"/>
<path d="M0 0 C0.99 0.66 1.98 1.32 3 2 C-2.02088768 5.42205752 -7.01094869 7.97543462 -12.703125 10.10546875 C-15.01621181 10.94604627 -15.01621181 10.94604627 -17.109375 12.17578125 C-19 13 -19 13 -22 12 C-21.36908447 11.67201416 -20.73816895 11.34402832 -20.08813477 11.00610352 C-17.24524542 9.52683603 -14.40385739 8.04470777 -11.5625 6.5625 C-10.56927734 6.04623047 -9.57605469 5.52996094 -8.55273438 4.99804688 C-7.60849609 4.50498047 -6.66425781 4.01191406 -5.69140625 3.50390625 C-4.81685791 3.04830322 -3.94230957 2.5927002 -3.04125977 2.12329102 C-1.06808311 1.16094783 -1.06808311 1.16094783 0 0 Z M-24 13 C-23.34 13.33 -22.68 13.66 -22 14 C-22.99 14 -23.98 14 -25 14 C-24.67 13.67 -24.34 13.34 -24 13 Z " fill="#D1D2D4" transform="translate(250,118)"/>
<path d="M0 0 C5.31598825 9.38679006 6.71982432 21.44257661 6 32 C5.67 32 5.34 32 5 32 C4.1592979 27.60554278 3.3287265 23.20923004 2.5 18.8125 C2.26152344 17.56662109 2.02304688 16.32074219 1.77734375 15.03710938 C1.55175781 13.83505859 1.32617188 12.63300781 1.09375 11.39453125 C0.88427734 10.28956299 0.67480469 9.18459473 0.45898438 8.04614258 C0.04546794 5.3017572 -0.09009749 2.76824525 0 0 Z " fill="#D1D0D3" transform="translate(228,269)"/>
<path d="M0 0 C0.62003906 0.3403125 1.24007813 0.680625 1.87890625 1.03125 C9.88746926 5.41439366 17.93921904 9.71397072 26 14 C23.04893565 15.25348607 22.02593537 15.01044806 18.984375 13.78515625 C17.91703125 13.21667969 16.8496875 12.64820312 15.75 12.0625 C14.67234375 11.49660156 13.5946875 10.93070313 12.484375 10.34765625 C11.66453125 9.90292969 10.8446875 9.45820312 10 9 C10 8.34 10 7.68 10 7 C9.278125 6.731875 8.55625 6.46375 7.8125 6.1875 C5.00233617 5.00098638 2.51583443 3.72514361 0 2 C0 1.34 0 0.68 0 0 Z " fill="#BCBEC1" transform="translate(360,103)"/>
<path d="M0 0 C1.16208984 0.08507812 1.16208984 0.08507812 2.34765625 0.171875 C4.23265095 0.31150424 6.11648861 0.46661381 8 0.625 C8 0.955 8 1.285 8 1.625 C6.79601562 1.66238281 5.59203125 1.69976562 4.3515625 1.73828125 C2.77600989 1.80392928 1.20049046 1.87037701 -0.375 1.9375 C-1.1690625 1.96005859 -1.963125 1.98261719 -2.78125 2.00585938 C-4.86215581 2.10285075 -6.93441332 2.35494825 -9 2.625 C-9.99 4.11 -9.99 4.11 -11 5.625 C-12.98 4.965 -14.96 4.305 -17 3.625 C-17 2.965 -17 2.305 -17 1.625 C-11.03819344 -0.14999241 -6.17205915 -0.53484048 0 0 Z " fill="#AEADAF" transform="translate(315,99.375)"/>
<path d="M0 0 C1.90845703 0.16628906 1.90845703 0.16628906 3.85546875 0.3359375 C4.83128906 0.43132812 5.80710937 0.52671875 6.8125 0.625 C6.8125 1.285 6.8125 1.945 6.8125 2.625 C8.4625 2.625 10.1125 2.625 11.8125 2.625 C10.4925 3.945 9.1725 5.265 7.8125 6.625 C7.1525 6.295 6.4925 5.965 5.8125 5.625 C5.8125 4.635 5.8125 3.645 5.8125 2.625 C0.5325 2.295 -4.7475 1.965 -10.1875 1.625 C-6.35207543 -0.93194972 -4.52847467 -0.41545639 0 0 Z " fill="#B5B4B8" transform="translate(334.1875,98.375)"/>
<path d="M0 0 C1.65 0.33 3.3 0.66 5 1 C5 1.66 5 2.32 5 3 C5.71027344 3.19335938 6.42054688 3.38671875 7.15234375 3.5859375 C8.07144531 3.84632813 8.99054688 4.10671875 9.9375 4.375 C10.85402344 4.63023437 11.77054687 4.88546875 12.71484375 5.1484375 C15 6 15 6 16 8 C10.94744036 7.36843005 6.70406799 5.86540627 2 4 C2 4.66 2 5.32 2 6 C1.01 5.67 0.02 5.34 -1 5 C-0.67 3.35 -0.34 1.7 0 0 Z " fill="#D1D1D6" transform="translate(400,130)"/>
<path d="M0 0 C0.33 0 0.66 0 1 0 C1 6.27 1 12.54 1 19 C0.01 18.67 -0.98 18.34 -2 18 C-2 14.37 -2 10.74 -2 7 C-1.67 7 -1.34 7 -1 7 C-0.67 4.69 -0.34 2.38 0 0 Z " fill="#C2C1BF" transform="translate(232,411)"/>
<path d="M0 0 C0.99 0.495 0.99 0.495 2 1 C1.98259766 2.06541016 1.98259766 2.06541016 1.96484375 3.15234375 C1.95582031 4.07144531 1.94679688 4.99054688 1.9375 5.9375 C1.92589844 6.85402344 1.91429687 7.77054687 1.90234375 8.71484375 C1.74050951 10.96593327 1.74050951 10.96593327 3 12 C3.04063832 13.66617115 3.042721 15.33388095 3 17 C2.01 17.33 1.02 17.66 0 18 C0 12.06 0 6.12 0 0 Z " fill="#AFAEB2" transform="translate(411,368)"/>
<path d="M0 0 C-4.20872298 2.17692568 -7.43483879 3.12422287 -12.1875 3.0625 C-13.53908203 3.04896484 -13.53908203 3.04896484 -14.91796875 3.03515625 C-15.60503906 3.02355469 -16.29210937 3.01195313 -17 3 C-16.01 2.34 -15.02 1.68 -14 1 C-13.29875 0.4225 -12.5975 -0.155 -11.875 -0.75 C-7.62007016 -2.59996949 -4.31331784 -1.30621172 0 0 Z " fill="#BEBDC2" transform="translate(331,97)"/>
<path d="M0 0 C2.0625 1.75 2.0625 1.75 4 4 C3.6875 6.0625 3.6875 6.0625 3 8 C3.33 8.99 3.66 9.98 4 11 C2.68 11.33 1.36 11.66 0 12 C-0.33 11.01 -0.66 10.02 -1 9 C-0.34 9 0.32 9 1 9 C0.34 8.01 -0.32 7.02 -1 6 C-0.625 2.8125 -0.625 2.8125 0 0 Z " fill="#B4B3B8" transform="translate(420,383)"/>
<path d="M0 0 C2.31 0 4.62 0 7 0 C7 1.32 7 2.64 7 4 C1.80790596 4.21192221 -2.126739 3.5912689 -7 2 C-3.98968256 1.06576355 -3.13349732 0.95550089 0 2 C0 1.34 0 0.68 0 0 Z " fill="#D2D1D6" transform="translate(331,94)"/>
<path d="M0 0 C4.75840173 0.95799681 8.24801642 2.9288838 11 7 C11.59572319 11.06645831 11.41580897 14.92111197 11 19 C10.67 19 10.34 19 10 19 C9.67 15.37 9.34 11.74 9 8 C8.34 8 7.68 8 7 8 C6.6596875 7.13375 6.6596875 7.13375 6.3125 6.25 C4.66961977 3.4336339 2.60466773 1.91922886 0 0 Z " fill="#D2D3D4" transform="translate(347,81)"/>
<path d="M0 0 C0.66 0 1.32 0 2 0 C2.33 2.97 2.66 5.94 3 9 C1.02 9.99 1.02 9.99 -1 11 C-1.14285714 3.57142857 -1.14285714 3.57142857 0 0 Z " fill="#B9B8BD" transform="translate(419,372)"/>
<path d="M0 0 C1.98 0.66 3.96 1.32 6 2 C5.67 2.99 5.34 3.98 5 5 C3.0625 5.75 3.0625 5.75 1 6 C0.34 5.67 -0.32 5.34 -1 5 C-0.67 3.35 -0.34 1.7 0 0 Z " fill="#DCDCDD" transform="translate(322,353)"/>
<path d="M0 0 C0.99 0.66 1.98 1.32 3 2 C2.34 2 1.68 2 1 2 C0.74476563 2.59296875 0.48953125 3.1859375 0.2265625 3.796875 C-1.11816498 6.21224538 -2.49214367 7.51211706 -4.625 9.25 C-5.25664062 9.77078125 -5.88828125 10.2915625 -6.5390625 10.828125 C-7.02117187 11.21484375 -7.50328125 11.6015625 -8 12 C-6.59023295 8.96147295 -4.91129772 6.4060405 -2.875 3.75 C-2.06675781 2.69039062 -2.06675781 2.69039062 -1.2421875 1.609375 C-0.83226562 1.07828125 -0.42234375 0.5471875 0 0 Z " fill="#D4D3D6" transform="translate(310,128)"/>
<path d="M0 0 C4.85963179 0.60745397 8.7405518 2.72758967 13 5 C9.44757118 6.18414294 8.30169438 5.69535532 4.8125 4.5625 C3.91144531 4.27503906 3.01039063 3.98757812 2.08203125 3.69140625 C1.39496094 3.46324219 0.70789063 3.23507813 0 3 C0 2.01 0 1.02 0 0 Z " fill="#C2C3C7" transform="translate(392,125)"/>
<path d="M0 0 C0.33 0.66 0.66 1.32 1 2 C1.66 2 2.32 2 3 2 C3.66 1.34 4.32 0.68 5 0 C5.99 1.32 6.98 2.64 8 4 C7.01 5.485 7.01 5.485 6 7 C5.34 6.34 4.68 5.68 4 5 C2.68252676 4.30251417 1.35085807 3.63040043 0 3 C0 2.01 0 1.02 0 0 Z " fill="#C4C5C8" transform="translate(417,140)"/>
<path d="M0 0 C0.33 1.65 0.66 3.3 1 5 C0.01 4.67 -0.98 4.34 -2 4 C-2 3.34 -2 2.68 -2 2 C-4.31 1.67 -6.62 1.34 -9 1 C-9 0.67 -9 0.34 -9 0 C-5.62182575 -0.84454356 -3.32534757 -1.10844919 0 0 Z " fill="#AEB0B5" transform="translate(420,138)"/>
<path d="M0 0 C0.33 1.32 0.66 2.64 1 4 C-1.97 6.475 -1.97 6.475 -5 9 C-5 4.61031544 -2.87194899 3.23094261 0 0 Z " fill="#D2D3D4" transform="translate(217,136)"/>
<path d="M0 0 C5.75 0.75 5.75 0.75 8 3 C6.02 3.66 4.04 4.32 2 5 C2 4.34 2 3.68 2 3 C1.34 3 0.68 3 0 3 C0 2.01 0 1.02 0 0 Z " fill="#C6C7CB" transform="translate(402,134)"/>
<path d="M0 0 C0.99 0 1.98 0 3 0 C3.33 1.65 3.66 3.3 4 5 C2.68 5.33 1.36 5.66 0 6 C0 4.02 0 2.04 0 0 Z " fill="#D3D2D7" transform="translate(330,127)"/>
<path d="M0 0 C2.97 0.33 5.94 0.66 9 1 C7.68 2.32 6.36 3.64 5 5 C4.34 4.67 3.68 4.34 3 4 C3 3.01 3 2.02 3 1 C2.01 0.67 1.02 0.34 0 0 Z " fill="#ADACAF" transform="translate(337,100)"/>
<path d="M0 0 C0.66 0 1.32 0 2 0 C1.30058404 3.14737182 0.23921302 6.02588876 -1 9 C-1.33 9 -1.66 9 -2 9 C-2.125 5.625 -2.125 5.625 -2 2 C-1.34 1.34 -0.68 0.68 0 0 Z " fill="#C4C4C9" transform="translate(412,320)"/>
<path d="M0 0 C0.66 0.33 1.32 0.66 2 1 C0.68 3.31 -0.64 5.62 -2 8 C-2.33 8 -2.66 8 -3 8 C-3.1875 5.125 -3.1875 5.125 -3 2 C-2.01 1.34 -1.02 0.68 0 0 Z " fill="#CFCFD3" transform="translate(413,159)"/>
<path d="M0 0 C0.99 0.33 1.98 0.66 3 1 C2.34 2.32 1.68 3.64 1 5 C-0.32 4.67 -1.64 4.34 -3 4 C-3 3.34 -3 2.68 -3 2 C-2.01 2 -1.02 2 0 2 C0 1.34 0 0.68 0 0 Z " fill="#C0C0C3" transform="translate(424,392)"/>
<path d="M0 0 C5.75 1.625 5.75 1.625 8 5 C4.5625 4.1875 4.5625 4.1875 1 3 C0.67 2.01 0.34 1.02 0 0 Z " fill="#C1C3C5" transform="translate(409,132)"/>
</svg>
