<?xml version="1.0" standalone="no"?>
<!DOCTYPE svg PUBLIC "-//W3C//DTD SVG 20010904//EN"
 "http://www.w3.org/TR/2001/REC-SVG-20010904/DTD/svg10.dtd">
<svg version="1.0" xmlns="http://www.w3.org/2000/svg"
 width="560.000000pt" height="412.000000pt" viewBox="0 0 560.000000 412.000000"
 preserveAspectRatio="xMidYMid meet">

<g transform="translate(0.000000,412.000000) scale(0.100000,-0.100000)"
fill="#000000" stroke="none">
<path d="M2575 3768 c-16 -6 -42 -19 -56 -29 -15 -10 -50 -24 -78 -30 -83 -17
-132 -72 -160 -176 -6 -22 -27 -66 -45 -98 -51 -84 -145 -311 -310 -750 -48
-126 -121 -314 -162 -416 -41 -102 -88 -226 -105 -275 -88 -253 -121 -314
-242 -442 -74 -79 -97 -121 -97 -180 0 -62 24 -104 96 -172 123 -115 236 -146
492 -135 195 8 252 21 340 79 76 49 239 213 359 361 45 55 127 155 181 222
105 128 297 404 375 538 25 44 64 120 87 168 37 81 105 187 129 202 13 8 44
-59 46 -101 1 -19 5 -38 9 -41 9 -10 7 -51 -6 -115 -15 -74 -1 -107 76 -174
38 -32 56 -55 56 -71 0 -16 6 -23 20 -23 27 0 25 -6 -10 -46 -27 -31 -29 -38
-23 -86 3 -29 12 -69 18 -88 8 -24 10 -53 5 -85 -13 -86 -22 -265 -13 -265 4
0 9 -17 11 -37 4 -62 41 -85 109 -67 28 8 36 42 17 72 -8 12 -12 27 -8 33 4 6
2 14 -4 18 -6 3 -13 40 -16 81 l-5 75 14 -60 14 -60 -5 100 c-6 125 -13 163
-25 144 -7 -11 -9 -9 -9 8 0 12 5 25 10 28 6 3 10 19 10 35 0 16 -4 32 -10 35
-18 11 -11 27 10 22 42 -11 35 99 -8 118 -12 5 -22 16 -22 24 0 8 3 11 7 8 10
-10 33 13 33 33 0 11 20 28 58 46 l57 29 1 58 c0 33 -5 61 -11 65 -7 4 -20 39
-29 77 -47 193 -84 268 -145 299 -25 13 -116 30 -296 55 -49 7 -71 3 -215 -36
-49 -13 -66 -26 -170 -131 -64 -65 -227 -224 -362 -355 -270 -260 -399 -402
-490 -541 -69 -105 -89 -141 -173 -326 -64 -140 -109 -220 -124 -220 -17 0
-121 91 -155 135 -18 24 -35 42 -38 40 -2 -3 -5 15 -7 40 -2 50 21 103 95 211
61 90 84 115 175 185 42 32 83 64 90 71 8 8 28 24 44 37 17 12 46 37 65 54 19
18 94 85 165 149 160 143 350 342 541 563 102 118 118 137 129 149 74 79 169
197 190 234 20 35 28 65 30 117 2 40 -1 75 -7 82 -6 7 -8 13 -4 13 4 0 -1 11
-9 24 -15 22 -14 24 3 28 16 4 18 1 14 -16 -4 -17 -2 -19 8 -9 21 19 -22 187
-64 249 -113 167 -345 286 -471 242z m112 -149 c93 -36 105 -44 142 -92 85
-111 99 -192 51 -287 -12 -23 -85 -105 -163 -183 -92 -92 -179 -192 -246 -282
-57 -77 -134 -174 -170 -215 -36 -41 -70 -80 -76 -86 -39 -45 -119 -124 -122
-121 -3 4 131 398 167 487 70 174 125 395 145 580 25 235 35 256 119 245 28
-3 97 -24 153 -46z m413 -289 c0 -5 -5 -10 -11 -10 -5 0 -7 5 -4 10 3 6 8 10
11 10 2 0 4 -4 4 -10z m686 -1034 c8 -21 -18 -70 -39 -74 -14 -3 -17 4 -17 36
0 21 3 42 7 45 12 12 43 7 49 -7z m-76 -46 c0 -48 -23 -64 -78 -55 -42 8 -98
31 -107 45 -3 5 14 14 37 20 24 6 57 14 73 19 64 19 75 15 75 -29z m-125 -70
c3 -6 -1 -7 -9 -4 -18 7 -21 14 -7 14 6 0 13 -4 16 -10z m22 -32 c-3 -8 -6 -5
-6 6 -1 11 2 17 5 13 3 -3 4 -12 1 -19z m60 -120 c18 -30 20 -38 8 -38 -8 0
-15 4 -15 10 0 5 -6 8 -12 6 -7 -3 -28 -7 -45 -10 -40 -7 -45 15 -11 51 29 31
46 26 75 -19z m-47 -109 c0 -24 -23 -21 -28 4 -2 10 3 17 12 17 10 0 16 -9 16
-21z m47 -191 c-3 -8 -6 -5 -6 6 -1 11 2 17 5 13 3 -3 4 -12 1 -19z m-39 -93
c6 -44 16 -81 21 -83 28 -9 0 -102 -30 -102 -21 0 -33 28 -19 45 11 14 3 45
-11 45 -9 0 -6 49 7 160 8 59 19 37 32 -65z m-1498 -426 c0 -7 -22 -34 -49
-60 -44 -45 -52 -49 -95 -49 -25 0 -46 2 -46 4 0 3 28 18 63 35 34 16 73 41
86 55 26 28 41 33 41 15z"/>
<path d="M3284 1315 c0 -110 2 -156 3 -103 2 53 2 143 0 200 -1 57 -3 13 -3
-97z"/>
</g>
</svg>
